<?xml version="1.0" encoding="UTF-8" standalone="no"?>
<!-- Created with Inkscape (http://www.inkscape.org/) -->

<svg
   xmlns:dc="http://purl.org/dc/elements/1.1/"
   xmlns:cc="http://creativecommons.org/ns#"
   xmlns:rdf="http://www.w3.org/1999/02/22-rdf-syntax-ns#"
   xmlns:svg="http://www.w3.org/2000/svg"
   xmlns="http://www.w3.org/2000/svg"
   xmlns:sodipodi="http://sodipodi.sourceforge.net/DTD/sodipodi-0.dtd"
   xmlns:inkscape="http://www.inkscape.org/namespaces/inkscape"
   width="210mm"
   height="210mm"
   viewBox="0 0 210 210"
   version="1.1"
   id="svg8"
   inkscape:version="0.92.3 (2405546, 2018-03-11)"
   sodipodi:docname="map-marker.svg">
  <defs
     id="defs2" />
  <sodipodi:namedview
     id="base"
     pagecolor="#ffffff"
     bordercolor="#666666"
     borderopacity="1.0"
     inkscape:pageopacity="0.0"
     inkscape:pageshadow="2"
     inkscape:zoom="0.98994949"
     inkscape:cx="401.14695"
     inkscape:cy="412.20224"
     inkscape:document-units="mm"
     inkscape:current-layer="layer1"
     showgrid="false"
     inkscape:window-width="1533"
     inkscape:window-height="845"
     inkscape:window-x="67"
     inkscape:window-y="27"
     inkscape:window-maximized="1" />
  <metadata
     id="metadata5">
    <rdf:RDF>
      <cc:Work
         rdf:about="">
        <dc:format>image/svg+xml</dc:format>
        <dc:type
           rdf:resource="http://purl.org/dc/dcmitype/StillImage" />
        <dc:title />
      </cc:Work>
    </rdf:RDF>
  </metadata>
  <g
     inkscape:label="Camada 1"
     inkscape:groupmode="layer"
     id="layer1"
     transform="translate(0,-87)">
    <ellipse
       style="opacity:1;fill:#ffffff;stroke:none;stroke-width:2.26499987;stroke-miterlimit:4;stroke-dasharray:none;stroke-opacity:1"
       id="path1416"
       cx="105.70509"
       cy="196.2394"
       rx="85.659889"
       ry="87.931671" />
    <path
       style="fill:#000000;stroke-width:1.17723215"
       d="M 87.123282,295.34614 C 83.592654,294.76078 76.323209,292.77186 70.968912,290.92631 29.166659,276.51769 1.1694979,237.57542 0.99806333,193.6012 0.97136733,186.43676 1.5320337,177.35041 2.2466932,173.40937 9.000143,136.16613 36.548896,104.60862 72.358677,93.094961 140.58355,71.159064 209.42492,121.15712 209.49112,192.69139 c 0.0534,57.44063 -47.68914,104.59001 -105.16268,103.85666 -5.932248,-0.0756 -13.674573,-0.61655 -17.205158,-1.20191 z m 1.392657,-60.17085 0.317686,-25.01616 h 15.304025 15.30403 l 0.31769,25.01616 0.31769,25.0162 h 18.57688 c 12.879,0 19.01012,-0.43337 19.98952,-1.41268 1.02967,-1.02968 1.41268,-10.11536 1.41268,-33.51127 v -32.09865 l 12.56576,-0.33414 12.56577,-0.33415 -16.65533,-13.81137 -16.65528,-13.81137 -0.32525,-17.9739 -0.32525,-17.9739 h -11.77231 -11.77231 l -0.58865,7.40426 -0.58861,7.40426 -11.48381,-9.56057 c -6.31613,-5.25832 -12.01168,-9.38468 -12.65675,-9.16964 -1.80375,0.60125 -78.720701,66.19448 -78.798698,67.1979 -0.04004,0.48561 5.228958,0.88294 11.703698,0.88294 h 11.772352 v 31.70117 c 0,27.24962 0.259844,31.96098 1.84992,33.55115 1.526716,1.52671 5.122128,1.84991 20.578168,1.84991 h 18.728204 z"
       id="path826"
       inkscape:connector-curvature="0" />
  </g>
</svg>
